<?xml version="1.0" encoding="UTF-8" standalone="no"?>
<svg
   width="312"
   height="87"
   version="1.1"
   xmlns="http://www.w3.org/2000/svg"
   xmlns:svg="http://www.w3.org/2000/svg">
  <path
     d="m 34.984494,28.0903 c -2.3021,0.1778 -4.6289,0.6615 -6.9689,1.4623 -0.5978,0.191 -0.9534,0.2926 -1.0808,0.2926 -0.2037,-0.0253 -0.3563,-0.0637 -0.4452,-0.1274 -0.1015,-0.0631 -0.1652,-0.1526 -0.1904,-0.2415 0,-0.2289 0.1526,-0.4578 0.4704,-0.6741 0.3052,-0.2289 0.5851,-0.343 0.8393,-0.343 0.0763,0 0.2925,-0.0511 0.6614,-0.1778 2.3394,-0.8267 4.8194,-1.3734 7.4261,-1.6534 2.7594,-5.8497 5.9002,-10.7328 9.4099,-14.6366 3.5097,-3.8912 7.2994,-6.7268 11.3432,-8.4817 -1.386,-0.7756 -2.9378,-1.3481 -4.6542,-1.717 -1.717,-0.3682 -3.6371,-0.5593 -5.7734,-0.5593 -3.6497,0 -7.4009,0.5467 -11.241,1.6407 -3.8402,1.0934 -7.2994,2.6068 -10.3766,4.5395 -3.0519,1.8948 -5.4045,3.9164 -7.0578,6.0786 -1.6527,2.1615 -2.4794,4.3105 -2.4794,6.4468 0,1.5897 0.4578,2.8357 1.3734,3.7386 0.9282,0.903 2.1874,1.3608 3.8022,1.3608 2.5431,0 5.2646,-1.2334 8.1639,-3.6875 2.912,-2.4542 5.2009,-5.5446 6.8921,-9.2706 0.5214,-1.1697 0.9408,-2.4541 1.246,-3.8653 0.3184,-1.3992 0.5851,-2.0985 0.814,-2.0985 0.3178,0 0.5467,0.191 0.6615,0.5725 0.1267,0.3941 0.1904,1.4112 0.1904,3.0772 0,5.1119 -1.4749,9.2699 -4.4126,12.4618 -2.9498,3.1919 -6.7143,4.7815 -11.3174,4.7815 -2.6067,0 -4.692,-0.623 -6.2438,-1.8822 -1.5512,-1.2586 -2.3268,-2.9372 -2.3268,-5.0483 0,-1.9837 0.6356,-4.0185 1.9201,-6.1038 1.2844,-2.0853 3.0645,-4.0054 5.3408,-5.7476 3.4587,-2.6326 7.3499,-4.6542 11.6736,-6.0912 C 36.968294,0.712 41.418794,0 46.021894,0 c 2.3274,0 4.4253,0.2163 6.2691,0.6483 1.8569,0.4451 3.7007,1.1444 5.5445,2.1111 1.386,-0.5467 2.6704,-0.9667 3.8659,-1.246 1.195,-0.2926 2.1364,-0.4326 2.8357,-0.4326 0.1652,0 0.3178,0.0511 0.4452,0.1274 0.1141,0.0889 0.1778,0.1778 0.1778,0.2541 0,0.2415 -0.6741,0.483 -2.0216,0.7251 -1.3608,0.2289 -2.7089,0.6483 -4.0823,1.246 1.8186,0.9667 3.2172,2.2505 4.2217,3.8402 1.0051,1.5896 1.5133,3.3066 1.5133,5.1756 0,3.5734 -1.9074,6.7269 -5.735,9.4484 -3.8275,2.7341 -8.749,4.3868 -14.7891,4.9593 -2.2632,6.6379 -5.8113,11.8514 -10.6691,15.6537 -4.8573,3.8023 -10.3255,5.6971 -16.4167,5.6971 -3.4971,0 -6.3069,-0.7629 -8.4307,-2.2889 -2.1237,-1.526 -3.1919,-3.5355 -3.1919,-6.0275 0,-1.9333 0.623,-3.5482 1.8564,-4.8453 1.2466,-1.2844 2.7594,-1.9326 4.5527,-1.9326 1.2586,0 2.2763,0.3562 3.0134,1.0681 0.7504,0.6993 1.1193,1.6401 1.1193,2.8104 0,0.9919 -0.2926,1.7549 -0.8771,2.289 -0.5852,0.5341 -1.5897,0.9408 -3.0393,1.2081 l -0.0763,0.0379 c -1.9586,0.4199 -2.9378,1.1318 -2.9378,2.1237 0,1.0429 0.7377,2.0348 2.2126,2.963 1.4881,0.9282 3.2045,1.3986 5.1631,1.3986 3.5733,0 6.8415,-1.5007 9.7787,-4.5016 2.9504,-3.0134 5.8371,-7.8202 8.6601,-14.4203 z m 9.8803,-2.5431 v 0 c 3.9549,-0.4451 7.3246,-2.2889 10.135,-5.5319 2.8104,-3.2297 4.209,-6.8283 4.209,-10.7706 0,-1.1697 -0.1526,-2.1616 -0.4704,-2.963 -0.3052,-0.8008 -0.7882,-1.526 -1.4244,-2.1363 -2.1868,0.9666 -4.2342,3.0645 -6.1291,6.3075 -1.9074,3.2423 -4.0059,8.2654 -6.3201,15.0943 z m 29.2348,-21.7575 v 0 l -11.661,20.8293 c -0.1905,0.3815 -0.5978,0.9661 -1.2208,1.7801 -0.623,0.8009 -1.3475,1.6149 -2.1616,2.4416 l -1.8948,1.9711 c -0.4325,0.4452 -0.9666,0.9919 -1.6022,1.6401 -1.1193,1.1192 -1.6786,1.8059 -1.6786,2.0474 0,0.1779 0.0511,0.3178 0.1652,0.4326 0.1148,0.1141 0.2547,0.1652 0.4326,0.1652 0.3688,0 1.4244,-0.8903 3.166,-2.683 1.094,-1.1193 1.997,-2.0222 2.7089,-2.7215 l -9.9061,18.4388 7.8587,-0.4451 c 4.2727,-6.1549 8.4691,-11.381 12.5765,-15.6796 4.1075,-4.2979 6.7395,-6.4468 7.884,-6.4468 0.1652,0 0.331,0.0636 0.4962,0.1904 0.1652,0.1147 0.2415,0.2289 0.2415,0.331 0,0.2926 -0.7882,1.5002 -2.3779,3.6113 -0.5977,0.8014 -1.0681,1.4244 -1.4118,1.8948 -2.1105,2.8867 -3.4838,5.0483 -4.1074,6.4853 -0.623,1.4371 -0.9282,2.8741 -0.9282,4.2853 0,1.6912 0.4199,3.0772 1.2718,4.1586 0.8393,1.0808 1.8822,1.6148 3.1282,1.6148 2.5052,0 6.7269,-2.963 12.6529,-8.9016 l 0.8645,-0.8519 c 0.4704,-0.483 1.1444,-1.1571 2.0474,-2.06 5.1883,-5.2135 8.6217,-8.2402 10.312796,-9.0795 -0.1015,-0.0252 -0.2162,-0.0511 -0.3304,-0.0763 -0.2799,-0.0511 -0.4578,-0.0763 -0.5214,-0.0763 -1.169796,0 -5.239396,3.3697 -12.220296,10.0966 l -2.4926,2.4163 c -2.1616,2.0853 -3.9802,3.6875 -5.4683,4.8068 -1.4875,1.1192 -2.5304,1.6785 -3.1282,1.6785 -0.2541,0 -0.4578,-0.0763 -0.6104,-0.2289 -0.1652,-0.14 -0.2415,-0.3178 -0.2415,-0.5215 0,-0.4956 0.5852,-1.4748 1.7807,-2.9371 0.4446,-0.5215 0.7882,-0.9414 1.0424,-1.2719 2.0348,-2.5304 3.446,-4.6163 4.26,-6.269 0.8015,-1.6533 1.2082,-3.2045 1.2082,-4.6416 0,-1.8696 -0.3941,-3.3192 -1.1956,-4.3742 -0.7882,-1.0555 -1.869,-1.5896 -3.2423,-1.5896 -1.5386,0 -3.6245,1.1186 -6.2691,3.3697 -2.6452,2.2505 -6.3585,6.0912 -11.1142,11.5336 l 18.9218,-36.1778 z m 30.379196,12.6781 v 0 c 0,-0.9919 0.4325,-1.8949 1.2844,-2.6831 0.8519,-0.8014 1.8186,-1.1955 2.8867,-1.1955 0.9156,0 1.6533,0.2667 2.2127,0.814 0.5593,0.5467 0.8392,1.2713 0.8392,2.1616 0,1.0682 -0.3941,1.9964 -1.1955,2.7846 -0.7882,0.7762 -1.729,1.1703 -2.823,1.1703 -1.0171,0 -1.8053,-0.2673 -2.3653,-0.8014 -0.5593,-0.5341 -0.8392,-1.2845 -0.8392,-2.2505 z m -6.980996,13.2884 v 0 l -2.2637,2.2001 c -0.3557,0.3178 -0.8008,0.7629 -1.3475,1.3097 -1.0682,1.0681 -1.7044,1.6022 -1.9333,1.6022 -0.2289,0 -0.3941,-0.0384 -0.5215,-0.1015 -0.1267,-0.0637 -0.1904,-0.1526 -0.1904,-0.28 0,-0.2926 0.4704,-0.8519 1.4244,-1.6785 0.6608,-0.6104 1.2075,-1.1193 1.6401,-1.526 l 2.4542,-2.4541 c 0.0763,-0.0763 0.2036,-0.2163 0.4073,-0.4074 1.4238,-1.4238 2.5557,-2.6446 3.394896,-3.6875 l 7.935,-0.5593 -7.7061,14.1151 c -1.169696,2.1363 -2.059996,3.8401 -2.670396,5.112 -0.6104,1.2586 -0.9156,2.06 -0.9156,2.3778 0,0.2037 0.0637,0.3689 0.1911,0.483 0.1141,0.1274 0.2793,0.1911 0.483,0.1911 0.6867,0 1.9201,-0.6993 3.662296,-2.1111 1.7548,-1.3986 3.9549,-3.4461 6.5869,-6.1291 4.5652,-4.6163 7.6808,-7.6172 9.3468,-8.9905 1.6659,-1.386 2.8734,-2.0727 3.6238,-2.0727 0.0511,0 0.2289,0.0378 0.5599,0.1141 0.1142,0.0259 0.2157,0.0385 0.292,0.0385 -1.9579,1.0423 -5.1246,3.8786 -9.4988,8.4943 -1.4497,1.5133 -2.5689,2.683 -3.3571,3.4971 -3.3823,3.4586 -6.0023,5.8113 -7.8839,7.0446 -1.869596,1.2466 -3.624496,1.8696 -5.239396,1.8696 -1.437,0 -2.5562,-0.4325 -3.3697,-1.2844 -0.8014,-0.8645 -1.2081,-2.0601 -1.2081,-3.5986 0,-2.0096 1.6275,-5.8245 4.883,-11.4447 0.5467,-0.9156 0.9535,-1.6281 1.2208,-2.1238 z m 21.058196,-0.0763 v 0 c -1.8948,3.2298 -3.2934,5.9387 -4.1963,8.1255 -0.903,2.1874 -1.3608,3.9296 -1.3608,5.2267 0,1.5896 0.4578,2.8482 1.3608,3.7764 0.9029,0.9288 2.1237,1.3992 3.6749,1.3992 2.48,0 6.8031,-3.2045 12.958,-9.6135 0.8777,-0.903 1.5386,-1.5896 2.009,-2.0859 0.2547,-0.2541 0.6362,-0.6482 1.1577,-1.1949 3.929,-4.1201 6.9683,-6.8032 9.1299,-8.0113 -0.0505,0 -0.14,-0.0126 -0.2667,-0.0385 -0.3178,-0.0763 -0.5215,-0.1141 -0.5852,-0.1141 -0.6741,0 -1.8185,0.6482 -3.446,1.9579 -1.6275,1.2971 -4.006,3.4971 -7.1468,6.5749 -0.6608,0.6734 -1.6023,1.6022 -2.7846,2.7971 -5.2904,5.2646 -8.4564,7.8972 -9.4994,7.8972 -0.3556,0 -0.6356,-0.1021 -0.8392,-0.2926 -0.2163,-0.2037 -0.3179,-0.4578 -0.3179,-0.7504 0,-0.7245 1.1571,-3.1282 3.4587,-7.2356 1.1703,-2.1106 2.0985,-3.7891 2.7978,-5.0609 l 16.3151,-30.0614 -7.2993,0.814 -12.0677,19.7101 c -0.5215,0.763 -1.1571,1.6149 -1.9075,2.5305 -0.7377,0.9155 -1.5638,1.8563 -2.4541,2.7978 l -1.8949,1.9711 c -0.4325,0.4446 -0.9666,0.9919 -1.6022,1.6401 -1.1193,1.1192 -1.6786,1.8059 -1.6786,2.0474 0,0.1778 0.0511,0.3178 0.1652,0.4326 0.1148,0.1141 0.2548,0.1652 0.4326,0.1652 0.3689,0 1.4244,-0.8904 3.166,-2.6831 1.0941,-1.1192 1.997,-2.0222 2.7215,-2.7215 z m 36.6231,-0.7755 v 0 c 0,0.966 -0.6483,2.5178 -1.9327,4.6415 -1.2971,2.1231 -3.0393,4.4758 -5.252,7.0573 -1.7422,2.0348 -3.4081,3.6244 -4.9972,4.7689 -1.5896,1.1445 -2.9377,1.7164 -4.057,1.7164 -0.5467,0 -0.9408,-0.1274 -1.1697,-0.3689 -0.2415,-0.2541 -0.3562,-0.6356 -0.3562,-1.1571 0,-1.0934 0.4836,-2.5556 1.4496,-4.3742 0.9667,-1.8311 2.5052,-4.1964 4.6163,-7.1083 2.0475,-2.7978 3.7639,-4.8705 5.1883,-6.2186 1.4112,-1.3349 2.5941,-2.009 3.5349,-2.009 0.8652,0 1.5771,0.2794 2.1364,0.8519 0.5599,0.572 0.8393,1.3097 0.8393,2.2001 z m 1.3097,-0.5215 v 0 l 1.8185,-3.6497 7.452,-0.5593 -7.8209,16.0988 c -0.6482,1.2971 -1.1697,2.3779 -1.5638,3.2809 -0.3941,0.8897 -0.5978,1.4238 -0.5978,1.6022 0,0.2926 0.0763,0.5341 0.2415,0.7245 0.1653,0.1911 0.3689,0.28 0.6104,0.28 0.7252,0 3.3445,-2.2511 7.8713,-6.7394 1.1319,-1.1193 2.0222,-2.0096 2.6452,-2.6579 3.4208,-3.3697 6.0402,-5.7986 7.8587,-7.2609 1.8059,-1.4629 3.0904,-2.2 3.8402,-2.2 0.0384,0 0.2289,0.0378 0.5473,0.1141 0.1267,0.0259 0.2156,0.0385 0.2667,0.0385 -1.7675,0.9408 -4.8957,3.6749 -9.3846,8.1891 -1.2719,1.2718 -2.2638,2.2511 -2.9883,2.9504 -0.5215,0.5467 -1.2592,1.3097 -2.2379,2.3142 -4.7815,4.8704 -8.4949,7.2993 -11.1016,7.2993 -1.3608,0 -2.4668,-0.4067 -3.3061,-1.2081 -0.8519,-0.8141 -1.2718,-1.8696 -1.2718,-3.1919 0,-0.7882 0.0763,-1.5386 0.2415,-2.2379 0.1652,-0.6867 0.42,-1.3992 0.763,-2.1237 -1.9579,2.8609 -3.9417,5.023 -5.9386,6.4853 -1.9964,1.4623 -3.9417,2.2 -5.8365,2.2 -1.9838,0 -3.5986,-0.623 -4.8452,-1.8696 -1.2334,-1.2333 -1.8564,-2.8735 -1.8564,-4.9083 0,-2.2378 0.5467,-4.3237 1.6407,-6.2438 1.0934,-1.92 2.7846,-3.7764 5.0609,-5.5697 2.2889,-1.7675 4.4505,-3.103 6.4853,-4.0054 2.0348,-0.9029 3.9038,-1.3607 5.595,-1.3607 1.6407,0 2.9504,0.3556 3.9296,1.0555 0.9793,0.7119 1.6023,1.7675 1.8817,3.1535 z"
     style="fill:#9e3d19;fill-rule:evenodd" />
  <path
     d="m 168.16469,50.9178 1.0916,0.0637 c 0,0.3917 0.3281,1.0279 1.0063,1.9177 0.6681,0.8903 1.5795,1.6959 2.7131,2.4055 1.1445,0.7209 2.3845,1.0705 3.7302,1.0705 0.9751,0 1.9393,-0.2012 2.9138,-0.6146 0.975,-0.4133 1.4628,-1.3139 1.4628,-2.7022 0,-1.4515 -0.5088,-2.6176 -1.5259,-3.5073 -1.0069,-0.8694 -2.1622,-1.6215 -3.4443,-2.2679 l -2.3315,-1.0917 c -1.356,-0.6992 -2.4476,-1.4412 -3.2532,-2.2252 -0.8051,-0.7738 -1.2082,-1.7591 -1.2082,-2.9882 0,-0.9541 0.3395,-1.9501 1.0177,-2.9883 0.6885,-1.0495 1.6744,-1.9182 2.9672,-2.5965 1.2929,-0.6783 2.7552,-1.0279 4.3977,-1.0279 0.9853,0 2.6494,0.1592 4.9594,0.4662 l 1.0279,5.2771 h -1.0916 c -0.1803,-0.7203 -0.6146,-1.4094 -1.2821,-2.066 -0.6782,-0.6464 -1.4628,-1.1974 -2.3634,-1.6533 -0.9006,-0.4554 -1.6744,-0.6885 -2.31,-0.6885 -1.1024,0 -1.9921,0.3388 -2.6704,1.0279 -0.6783,0.6777 -1.0279,1.547 -1.0279,2.6067 0,0.8477 0.2541,1.526 0.7521,2.0132 0.4981,0.5191 1.4311,1.1235 2.8189,1.8017 l 1.8972,0.9006 c 1.7164,0.8158 3.1895,1.7482 4.4079,2.8296 1.2189,1.091 1.8335,2.6068 1.8335,4.5353 0,0.7203 -0.1484,1.4941 -0.456,2.3099 -0.2961,0.8159 -0.7413,1.3992 -1.3457,1.7489 -1.7164,1.1018 -3.1366,1.8119 -4.2493,2.1297 -1.1234,0.3178 -2.2571,0.4872 -3.4225,0.4872 -0.4134,0 -0.9961,-0.0528 -1.7699,-0.1586 -0.763,-0.1057 -1.3037,-0.191 -1.6107,-0.2541 -0.3076,-0.0535 -0.8477,-0.2019 -1.6107,-0.435 -0.7738,-0.2222 -1.2718,-0.3706 -1.4941,-0.4343 0.1694,-0.8267 0.2433,-1.4094 0.2433,-1.7693 0,-0.5088 -0.0847,-1.219 -0.2643,-2.1195 -0.17,-0.9012 -0.3394,-1.5686 -0.5089,-2.003 z m 40.7876,-9.1557 v 0 l -15.5245,3.3487 c 0.1063,1.9495 0.2968,3.4544 0.5827,4.5142 0.2758,1.0705 0.8267,2.1513 1.6534,3.2429 1.5998,2.0979 3.5181,3.1366 5.7752,3.1366 0.9324,0 1.9284,-0.17 2.9882,-0.5298 1.049,-0.3497 2.2253,-0.9751 3.5079,-1.8865 l 0.5509,0.742 c -3.5926,2.5857 -6.7929,3.8786 -9.5901,3.8786 -2.9564,0 -5.267,-1.1132 -6.9197,-3.3487 -1.6533,-2.2361 -2.4908,-4.8008 -2.4908,-7.7043 0,-2.9564 0.6362,-5.4148 1.8973,-7.3649 1.261,-1.9603 2.6806,-3.3805 4.2492,-4.2703 1.5788,-0.8903 2.766,-1.3355 3.571,-1.3355 0.933,0 1.9074,0.1484 2.9035,0.4452 1.0069,0.3076 1.9922,0.8795 2.957,1.7272 0.9534,0.8477 1.7591,2.003 2.4055,3.4761 0.1796,0.307 0.3599,0.5191 0.5191,0.6248 0.1694,0.0955 0.4662,0.1484 0.9005,0.1484 z m -15.4608,2.1405 v 0 l 4.069,-0.8687 c 0.1694,-0.0847 0.7948,-0.2547 1.8756,-0.498 1.0916,-0.2548 1.8227,-0.4032 2.194,-0.4662 1.07,-0.2548 1.7591,-0.4242 2.045,-0.5299 0.2968,-0.1064 0.4344,-0.265 0.4344,-0.4981 0,-0.3286 -0.2439,-0.8903 -0.742,-1.6851 -0.498,-0.8057 -1.2075,-1.5368 -2.1297,-2.1934 -0.9222,-0.6675 -2.003,-0.9961 -3.243,-0.9961 -1.5469,0 -2.6488,0.8158 -3.306,2.4583 -0.6464,1.6317 -1.0489,3.3908 -1.1973,5.2772 z m 24.3733,-4.3237 v 0 l -3.8257,1.717 c -0.1593,-0.6675 -0.244,-1.1553 -0.244,-1.4623 0,-1.0598 0.6465,-2.0348 1.9393,-2.9354 1.2929,-0.9005 2.7552,-1.6323 4.3766,-2.1832 1.6215,-0.5617 2.7552,-0.8477 3.4016,-0.8477 0.5617,0 1.2502,0.2542 2.0769,0.7522 0.8266,0.4986 1.4941,0.9859 1.9921,1.4839 0.435,0.4133 0.763,0.8267 1.0069,1.2292 0.2331,0.4025 0.4452,1.0387 0.6356,1.9074 0.1911,0.8687 0.2758,1.9814 0.2758,3.3277 0,0.3917 -0.0529,1.7801 -0.1484,4.1537 l -0.1274,2.3316 c -0.0847,1.1127 -0.1267,2.0024 -0.1267,2.6705 0,0.8476 0.1165,1.759 0.3388,2.7335 0.2121,0.996 0.6783,1.4839 1.3992,1.4839 0.8051,0 1.8858,-0.2968 3.2316,-0.9006 v 1.2821 l -4.5671,1.8227 c -0.9114,0.3178 -1.4202,0.4662 -1.547,0.4662 -0.477,0 -0.954,-0.3076 -1.4094,-0.9432 -0.4662,-0.6356 -0.8477,-1.3776 -1.1342,-2.2463 -3.836,2.1297 -6.7713,3.1895 -8.8164,3.1895 -1.2718,0 -2.215,-0.3605 -2.8614,-1.1024 -0.6357,-0.7312 -0.9643,-1.833 -0.9643,-3.3061 0,-1.3986 0.17,-2.4481 0.5197,-3.1366 0.3388,-0.6783 0.8897,-1.219 1.6527,-1.6107 1.5578,-0.784 3.2003,-1.3673 4.9383,-1.7488 1.7381,-0.3917 3.5608,-0.7095 5.4683,-0.9853 l 0.1484,-3.8149 v -1.0279 c 0,-1.759 -0.4981,-3.1474 -1.505,-4.1754 -0.9961,-1.0171 -2.1724,-1.5361 -3.5181,-1.5361 -0.6464,0 -1.2929,0.1802 -1.9393,0.5401 -0.6572,0.3712 -0.9858,0.8795 -0.9858,1.5367 0,0.3389 0.1063,0.7841 0.3184,1.335 z m 7.354,14.6876 v 0 c -0.0637,-0.6783 0,-2.6284 0.1905,-5.8389 -2.7336,-0.1802 -4.9276,0.1484 -6.5803,0.9961 -1.6641,0.8477 -2.4902,1.9183 -2.4902,3.2003 0,0.9324 0.2541,1.8119 0.763,2.6386 0.5082,0.8267 1.2075,1.24 2.0979,1.24 0.9858,0 2.999,-0.742 6.0191,-2.2361 z m 10.3741,3.6984 v 0 l 0.0529,-0.9006 c 1.0387,-0.2121 1.7488,-0.4133 2.1514,-0.6254 0.3923,-0.2013 0.7311,-0.6891 1.0171,-1.4521 0.2967,-0.7731 0.4878,-1.9176 0.5725,-3.4544 0.0949,-1.526 0.1484,-3.8786 0.1484,-7.047 0,-2.5011 -0.1382,-4.1646 -0.4031,-4.9913 -0.2752,-0.826 -0.9426,-1.2502 -2.024,-1.2502 -0.6356,0 -1.2929,0.0848 -1.9495,0.2542 l 0.1165,-0.9961 8.0113,-4.6518 c 0.0847,1.2821 0.1268,3.0411 0.1268,5.2772 l 3.3168,-1.8966 c 0.17,-0.1064 0.3184,-0.1911 0.435,-0.2758 0.2331,-0.1274 0.4872,-0.2757 0.784,-0.4554 0.286,-0.17 0.784,-0.477 1.4833,-0.9011 0.7101,-0.4236 1.261,-0.763 1.6743,-1.0382 l 0.2548,0.1268 c 0.1267,0.1274 0.2649,0.2229 0.4343,0.3076 0.6146,0.286 1.1018,0.6248 1.4623,0.9961 0.3497,0.3706 0.5191,0.9113 0.5191,1.6106 0,0.8051 -0.3286,1.4731 -0.9853,1.9922 -0.6674,0.5191 -1.4623,0.8267 -2.3953,0.9324 0,-0.7101 -0.1694,-1.2502 -0.498,-1.6209 -0.328,-0.3713 -0.7942,-0.5515 -1.3986,-0.5515 -0.6146,0 -1.3565,0.2229 -2.2042,0.6681 -0.8477,0.4445 -1.4833,0.8579 -1.9177,1.2502 -0.5197,0.4553 -0.8267,0.8368 -0.9222,1.1336 -0.0955,0.2968 -0.1484,1.0388 -0.1694,2.2253 -0.1274,3.4971 -0.1802,5.3408 -0.1802,5.5529 0,4.0378 0.2012,6.528 0.6146,7.4814 0.1904,0.3286 0.3923,0.5299 0.6254,0.6044 0.2223,0.0739 0.6146,0.1057 1.1763,0.1057 l 0.805,-0.0528 3.6984,-0.0637 -0.0637,1.2718 c -0.1058,0 -0.7522,0.021 -1.9603,0.0631 -1.1974,0.0426 -2.003,0.0637 -2.4163,0.0637 z m 39.7387,-3.9423 v 0 l 0.4343,0.9006 c -2.7551,2.2787 -5.595,3.4123 -8.5093,3.4123 -1.6744,0 -3.4118,-0.3496 -5.2027,-1.0381 -1.7909,-0.6999 -3.1901,-1.5896 -4.2072,-2.692 -0.6356,-0.763 -1.1445,-1.833 -1.5049,-3.2106 -0.3599,-1.3775 -0.5401,-2.7022 -0.5401,-3.9843 0,-2.5857 0.6885,-4.9491 2.0768,-7.0687 1.3884,-2.1189 3.0946,-3.7722 5.1078,-4.9485 2.0132,-1.1763 3.9104,-1.7699 5.6695,-1.7699 1.0489,0 2.522,0.2968 4.4078,0.8795 1.8763,0.5936 2.8189,1.1445 2.8189,1.6642 0,0.212 -0.286,0.7521 -0.8688,1.6209 -0.5719,0.8693 -1.0387,1.3036 -1.3986,1.3036 -0.1592,0 -0.3923,-0.0847 -0.689,-0.2541 -0.307,-0.1592 -0.8159,-0.4452 -1.5362,-0.8375 -2.2577,-0.9324 -4.1225,-1.3986 -5.5956,-1.3986 -2.0877,0 -3.6665,0.6885 -4.7154,2.0559 -1.0598,1.3565 -1.5897,3.4124 -1.5897,6.1459 0,2.501 0.5509,4.6097 1.6533,6.3267 1.0916,1.7164 2.4157,2.9774 3.9525,3.762 1.547,0.784 2.9564,1.1757 4.2391,1.1757 1.0807,0 2.0768,-0.1796 2.9984,-0.5611 0.9222,-0.3713 1.9183,-0.8693 2.9991,-1.4839 z m 1.3883,-33.8991 v 0 -1.1871 c 0.4554,-0.2223 0.763,-0.3815 0.9006,-0.4662 l 6.0299,-2.9144 1.0171,-0.5617 1.028,0.498 c -0.3923,1.8654 -0.6675,4.006 -0.8369,6.4433 -0.17,2.4265 -0.2866,5.5211 -0.3713,9.2615 l -0.1904,6.3051 c 2.4475,-1.049 4.4295,-1.833 5.9446,-2.331 1.526,-0.4878 2.9882,-0.742 4.3976,-0.742 1.982,0 3.4335,0.6038 4.3448,1.8228 0.9114,1.2081 1.4731,2.6806 1.6954,4.4295 0.2121,1.759 0.3184,4.0588 0.3184,6.9088 0,0.5618 0,1.0814 -0.0108,1.5578 -0.0108,0.4771 -0.021,1.1445 -0.0427,2.003 -0.021,0.8585 -0.0528,1.6425 -0.0847,2.3526 -0.0318,0.7204 -0.042,1.1235 -0.042,1.2292 0,0.8904 0.2115,1.4833 0.6464,1.7699 0.4344,0.286 1.6425,0.4343 3.6028,0.4343 l -0.0636,0.9643 h -2.0132 c -0.3076,0 -1.5897,0.0108 -3.8366,0.0318 -2.2462,0.0211 -3.4015,0.0319 -3.4646,0.0319 -0.0535,0 -0.5089,0.1057 -1.3565,0.307 -0.2121,0 -0.3179,-0.1484 -0.3179,-0.4344 0,-0.2013 0.1695,-0.3496 0.4981,-0.4344 0.784,-0.1802 1.3776,-0.519 1.759,-0.996 0.3815,-0.477 0.6357,-1.2821 0.7732,-2.4163 0.1382,-1.1445 0.2013,-3.0093 0.2013,-5.616 0,-4.1225 -0.328,-7.0579 -0.9961,-8.817 -0.6566,-1.759 -2.1724,-2.6386 -4.5352,-2.6386 -1.219,0 -2.5647,0.2229 -4.027,0.6783 -1.4731,0.4554 -2.5641,0.8687 -3.264,1.24 0,0.5828 -0.042,1.5578 -0.1267,2.9246 l -0.2758,7.4814 c 0,0.477 -0.0102,0.9113 -0.021,1.3036 -0.0108,0.3917 -0.021,0.8261 -0.0427,1.3031 0,2.003 0.1382,3.2958 0.4031,3.8786 0.1058,0.3496 0.3497,0.5936 0.7414,0.7311 0.4031,0.1274 1.4413,0.2758 3.1366,0.4134 v 1.0916 c -0.6776,-0.0847 -2.1297,-0.1274 -4.3448,-0.1274 -2.2991,0 -4.7683,0.1063 -7.4177,0.3076 l 0.0637,-1.0177 c 1.3247,-0.2752 2.1934,-0.5401 2.6176,-0.7948 0.4235,-0.2542 0.7203,-0.7522 0.8687,-1.4725 0.1592,-0.7209 0.2649,-2.0775 0.3286,-4.0696 0.0637,-3.2532 0.1484,-6.0294 0.2541,-8.3502 l 0.1166,-8.6895 c 0.0426,-0.8904 0.0637,-2.8717 0.0637,-5.9344 0,-2.7972 -0.1166,-4.8531 -0.3497,-6.1886 -0.2433,-1.3349 -0.8266,-2.0024 -1.759,-2.0024 -0.1484,0 -0.7949,0.1586 -1.9604,0.4981 z"
     style="fill:#69c0d9;fill-rule:evenodd" />
  <path
     d="M 8.492294,69.409 H 195.48239 l -8.4522,3.3793 H 0.04009403 Z"
     style="fill:#69c0d9;fill-rule:evenodd;stroke:#69c0d9;stroke-width:0.216;stroke-linecap:butt;stroke-linejoin:miter;stroke-dasharray:none" />
  <path
     d="m 133.33619,83.3018 178.1954,0.0252 -8.5417,3.3613 -178.1972,-0.007 z"
     style="fill:#9e3d19;fill-rule:evenodd;stroke:#9e3d19;stroke-width:0.216;stroke-linecap:butt;stroke-linejoin:miter;stroke-dasharray:none" />
</svg>
